<svg xmlns="http://www.w3.org/2000/svg" xmlns:xlink="http://www.w3.org/1999/xlink" width="229" height="28"><defs><linearGradient id="a" x1="50%" x2="50%" y1="0%" y2="100%"><stop offset="0%" stop-color="#FF8500"/><stop offset="100%" stop-color="#FF2E1B"/></linearGradient><linearGradient id="b" x1="0%" x2="70.278%" y1="51.665%" y2="47.764%"><stop offset="0%" stop-color="#FFF"/><stop offset="49.091%" stop-color="#F9BF92"/><stop offset="100%" stop-color="#FFF"/></linearGradient><path id="c" d="M22.764.215A2.606 2.606 0 0 0 20.486 2.8v-.05l-11.889.002v-.383c0-1.19.965-2.153 2.154-2.153z"/><filter id="d" width="107.1%" height="138.7%" x="-3.5%" y="-19.3%" filterUnits="objectBoundingBox"><feGaussianBlur in="SourceAlpha" result="shadowBlurInner1" stdDeviation=".5"/><feOffset in="shadowBlurInner1" result="shadowOffsetInner1"/><feComposite in="shadowOffsetInner1" in2="SourceAlpha" k2="-1" k3="1" operator="arithmetic" result="shadowInnerInner1"/><feColorMatrix in="shadowInnerInner1" values="0 0 0 0 1 0 0 0 0 1 0 0 0 0 1 0 0 0 0.5 0"/></filter><linearGradient id="e" x1="87.969%" x2="56.3%" y1="100%" y2="5.9%"><stop offset="0%" stop-color="#FFF" stop-opacity=".502"/><stop offset="62.413%" stop-color="#FFF9EB" stop-opacity=".923"/><stop offset="100%" stop-color="#FFB59B"/></linearGradient><linearGradient id="g" x1="118.296%" x2="50%" y1="28.433%" y2="90.032%"><stop offset="0%" stop-color="#FFF" stop-opacity="0"/><stop offset="100%" stop-color="#FFF"/></linearGradient><path id="f" d="M16.31.216a2.153 2.153 0 0 1 2.149 1.999l.005.154-.006 14.003h.006v.42l.005.154c.08 1.118 1.011 2 2.149 2h.208v.008H8.789c-.031 0-.063 0-.094-.002H7.043a2.585 2.585 0 0 1-2.581-2.42l-.005-.163V3.883C4.534 1.508 4.025.218 2.087.216H16.31z"/><linearGradient id="h" x1="50%" x2="50%" y1="20.311%" y2="100%"><stop offset="0%" stop-color="#FFF"/><stop offset="100%" stop-color="#FFF" stop-opacity=".819"/></linearGradient><path id="i" d="M2.305 16.37l13.598.013A2.155 2.155 0 0 0 14.15 18.5v.451h-14v-.428c0-1.19.964-2.154 2.154-2.154h.002z"/><filter id="j" width="112.7%" height="177.5%" x="-6.3%" y="-38.7%" filterUnits="objectBoundingBox"><feGaussianBlur in="SourceAlpha" result="shadowBlurInner1" stdDeviation=".5"/><feOffset dy="1" in="shadowBlurInner1" result="shadowOffsetInner1"/><feComposite in="shadowOffsetInner1" in2="SourceAlpha" k2="-1" k3="1" operator="arithmetic" result="shadowInnerInner1"/><feColorMatrix in="shadowInnerInner1" values="0 0 0 0 1 0 0 0 0 1 0 0 0 0 1 0 0 0 0.784937719 0"/></filter><linearGradient id="k" x1="6.715%" x2="112.091%" y1="25.557%" y2="79.794%"><stop offset="0%" stop-color="#FE8703"/><stop offset="100%" stop-color="#FE4E2D"/></linearGradient></defs><g fill="none" fill-rule="evenodd"><path fill="url(#a)" d="M17.957 0c2.768 0 4.152 0 5.642.471a5.855 5.855 0 0 1 3.5 3.5c.47 1.49.47 2.873.47 5.64v8.346c0 2.768 0 4.152-.47 5.642a5.854 5.854 0 0 1-3.5 3.499c-1.49.471-2.874.471-5.642.471H9.612c-2.768 0-4.152 0-5.641-.471a5.854 5.854 0 0 1-3.5-3.5C0 22.109 0 20.726 0 17.959V9.611C0 6.844 0 5.46.471 3.97a5.855 5.855 0 0 1 3.5-3.5C5.46 0 6.844 0 9.61 0h8.346z"/><g transform="matrix(-1 0 0 1 33.582 4.308)"><use fill="url(#b)" xlink:href="#c"/><use fill="#000" filter="url(#d)" xlink:href="#c"/></g><g transform="matrix(1 0 0 -1 2.22 23.477)"><use fill="url(#e)" xlink:href="#f"/><use fill="url(#g)" xlink:href="#f"/></g><g transform="matrix(1 0 0 -1 2.22 39.629)"><use fill="url(#h)" xlink:href="#i"/><use fill="#000" filter="url(#j)" xlink:href="#i"/></g><path fill="url(#k)" d="M15.5 10a.5.5 0 0 1 .5.5v5a.5.5 0 1 1-1 0v-5a.5.5 0 0 1 .5-.5zm-4 0a.5.5 0 0 1 .5.5v5a.5.5 0 1 1-1 0v-5a.5.5 0 0 1 .5-.5zm2 1a.5.5 0 0 1 .5.5v3a.5.5 0 1 1-1 0v-3a.5.5 0 0 1 .5-.5zm4 0a.5.5 0 0 1 .5.5v3a.5.5 0 1 1-1 0v-3a.5.5 0 0 1 .5-.5zm-8 0a.5.5 0 0 1 .5.5v3a.5.5 0 1 1-1 0v-3a.5.5 0 0 1 .5-.5z"/><text fill="#FFF" font-family="FZLTZHUNHJW--GB1-0, FZLanTingHeiS-M-GB" font-size="18"><tspan x="36.185" y="20.523">搜狗听写</tspan></text><path stroke="#FFF" stroke-linecap="square" stroke-width=".5" d="M114.5 5.5v18"/><text fill="#FFF" font-family="FZLTZHUNHJW--GB1-0, FZLanTingHeiS-M-GB" font-size="18"><tspan x="121.185" y="20.523">搜狗录音助手</tspan></text></g></svg>